# Blender v2.76 (sub 0) OBJ File: 'escopeta.blend'
# www.blender.org
mtllib escopeta.mtl
o Cube_Cube.001
v 0.013734 0.011269 0.053197
v 0.013734 0.048408 0.034268
v 0.013734 0.005537 0.031401
v 0.013734 0.048419 0.018216
v 0.028728 0.011269 0.053197
v 0.028728 0.048408 0.034268
v 0.028728 0.005537 0.031401
v 0.028728 0.048419 0.018216
v 0.013734 0.019566 0.048843
v 0.013734 0.027261 0.043882
v 0.013734 0.034956 0.039455
v 0.013734 0.042650 0.034894
v 0.013734 0.035583 0.018175
v 0.013734 0.027888 0.022735
v 0.013734 0.020193 0.026761
v 0.013734 0.012498 0.029586
v 0.028728 0.035583 0.018175
v 0.028728 0.027888 0.022735
v 0.028728 0.020193 0.026761
v 0.028728 0.012498 0.029586
v 0.028728 0.042650 0.034894
v 0.028728 0.034956 0.039455
v 0.028728 0.027261 0.043882
v 0.028728 0.019566 0.048843
v 0.025330 0.035583 0.018175
v 0.017133 0.035583 0.018175
v 0.025330 0.048419 0.018216
v 0.017133 0.048419 0.018216
v 0.025330 0.035087 0.011915
v 0.017133 0.035087 0.011915
v 0.025330 0.048439 0.011956
v 0.017133 0.048439 0.011956
v 0.025330 0.042021 0.015246
v 0.017133 0.042021 0.015246
v 0.025330 0.045230 0.014362
v 0.017133 0.045230 0.014362
v 0.025330 0.038812 0.014565
v 0.017133 0.038812 0.014565
v 0.025330 0.035919 0.012507
v 0.017133 0.035919 0.012507
v 0.025330 0.035087 -0.001415
v 0.017133 0.035087 -0.001415
v 0.025330 0.035919 -0.000823
v 0.017133 0.035919 -0.000823
v 0.025330 0.041148 -0.006665
v 0.017133 0.041148 -0.006665
v 0.025330 0.041017 -0.005357
v 0.017133 0.041017 -0.005357
v 0.017133 0.036491 -0.002063
v 0.017133 0.037614 -0.003606
v 0.017133 0.038911 -0.004645
v 0.017133 0.039240 -0.005772
v 0.017133 0.037478 -0.004482
v 0.017133 0.036337 -0.003253
v 0.025330 0.039240 -0.005772
v 0.025330 0.037478 -0.004482
v 0.025330 0.036337 -0.003253
v 0.025330 0.036491 -0.002063
v 0.025330 0.037614 -0.003606
v 0.025330 0.038911 -0.004645
v 0.025330 0.048685 -0.010398
v 0.017133 0.048685 -0.010398
v 0.025330 0.048553 -0.003686
v 0.017133 0.048553 -0.003686
v 0.025330 0.043475 -0.005371
v 0.025330 0.045987 -0.005187
v 0.017133 0.045987 -0.005187
v 0.017133 0.043475 -0.005371
v 0.025330 0.043606 -0.007622
v 0.025330 0.046118 -0.008642
v 0.017133 0.046118 -0.008642
v 0.017133 0.043606 -0.007622
v 0.011010 0.048405 0.038090
v 0.011010 0.048422 0.014394
v 0.031452 0.048422 0.014394
v 0.031452 0.048405 0.038090
v 0.011010 0.068543 0.030316
v 0.011010 0.073346 0.014411
v 0.031452 0.073346 0.014411
v 0.031452 0.068543 0.030316
v 0.011010 0.048470 -0.053463
v 0.031452 0.048470 -0.053463
v 0.011010 0.075702 -0.053445
v 0.031452 0.075702 -0.053445
v 0.031452 0.066482 0.014406
v 0.031452 0.066465 0.038102
v 0.011010 0.066465 0.038102
v 0.011010 0.066482 0.014406
v 0.031452 0.066530 -0.053450
v 0.011010 0.066530 -0.053450
v 0.028347 0.049525 0.041616
v 0.014116 0.049525 0.041616
v 0.028347 0.063257 0.041628
v 0.014116 0.063257 0.041628
v 0.011010 0.075450 -0.000868
v 0.011010 0.048433 -0.001368
v 0.031452 0.075450 -0.000868
v 0.031452 0.048433 -0.001368
v 0.031452 0.066493 -0.001356
v 0.011010 0.066493 -0.001356
v 0.011010 0.075374 -0.006271
v 0.031452 0.075374 -0.006271
v 0.031452 0.066496 -0.005363
v 0.011010 0.066496 -0.005363
v 0.011010 0.048436 -0.005376
v 0.031452 0.048436 -0.005376
v 0.031452 0.077509 -0.002514
v 0.011010 0.077509 -0.002514
v 0.011010 0.077648 -0.004320
v 0.031452 0.077648 -0.004320
v 0.011010 0.048425 0.010453
v 0.031452 0.048425 0.010453
v 0.011010 0.073872 0.010591
v 0.031452 0.073872 0.010591
v 0.031452 0.066485 0.010466
v 0.011010 0.066485 0.010466
v 0.011010 0.074488 0.006121
v 0.031452 0.074488 0.006121
v 0.031452 0.066488 0.005854
v 0.011010 0.066488 0.005854
v 0.011010 0.048428 0.005841
v 0.031452 0.048428 0.005841
v 0.017015 0.048427 0.006041
v 0.017015 0.048426 0.010179
v 0.025447 0.048427 0.006041
v 0.025447 0.048426 0.010179
v 0.017015 0.038504 0.007972
v 0.017015 0.038726 0.009091
v 0.025447 0.038504 0.007972
v 0.025447 0.038726 0.009091
v 0.025447 0.046416 0.008015
v 0.025447 0.044342 0.009281
v 0.025447 0.042268 0.009428
v 0.025447 0.040566 0.009241
v 0.017015 0.040566 0.009241
v 0.017015 0.042268 0.009428
v 0.017015 0.044342 0.009281
v 0.017015 0.046416 0.008015
v 0.025447 0.046415 0.010812
v 0.025447 0.044340 0.010885
v 0.025447 0.042266 0.010772
v 0.025447 0.040192 0.010248
v 0.017015 0.046415 0.010812
v 0.017015 0.044340 0.010885
v 0.017015 0.042266 0.010772
v 0.017015 0.040192 0.010248
v 0.011010 0.075452 -0.017409
v 0.031452 0.075452 -0.017409
v 0.031452 0.066504 -0.016717
v 0.011010 0.066504 -0.016717
v 0.011010 0.048444 -0.016730
v 0.031452 0.048444 -0.016730
v 0.011010 0.075644 -0.045146
v 0.031452 0.075644 -0.045146
v 0.031452 0.066524 -0.044990
v 0.011010 0.066524 -0.044990
v 0.011010 0.048464 -0.045003
v 0.031452 0.048464 -0.045003
v 0.031452 0.063373 -0.044993
v 0.031452 0.063373 -0.016719
v 0.031452 0.073615 -0.045112
v 0.031452 0.073638 -0.017269
v 0.029040 0.063373 -0.016719
v 0.029040 0.066504 -0.016717
v 0.029040 0.066524 -0.044990
v 0.029040 0.063373 -0.044993
v 0.029040 0.073615 -0.045112
v 0.029040 0.073638 -0.017269
v 0.011010 0.072827 -0.045098
v 0.011010 0.072855 -0.017208
v 0.011010 0.060368 -0.016721
v 0.011010 0.060368 -0.044995
v 0.013874 0.072855 -0.017208
v 0.013874 0.066504 -0.016717
v 0.013874 0.066524 -0.044990
v 0.013874 0.072827 -0.045098
v 0.013874 0.060368 -0.016721
v 0.013874 0.060368 -0.044995
v 0.012517 0.069713 -0.151072
v 0.013097 0.069693 -0.053959
v 0.018115 0.074026 -0.151104
v 0.018694 0.074005 -0.053992
v 0.026639 0.074204 -0.151155
v 0.027219 0.074184 -0.054043
v 0.029566 0.070069 -0.151173
v 0.030146 0.070049 -0.054061
v 0.023969 0.065756 -0.151141
v 0.024549 0.065736 -0.054028
v 0.015444 0.065578 -0.151090
v 0.016024 0.065558 -0.053978
v 0.013072 0.069693 -0.058091
v 0.018670 0.074006 -0.058124
v 0.027194 0.074185 -0.058175
v 0.030121 0.070050 -0.058193
v 0.024524 0.065737 -0.058161
v 0.016000 0.065559 -0.058110
v 0.018198 0.074389 -0.053446
v 0.012549 0.069465 -0.053450
v 0.012237 0.069676 -0.058289
v 0.027765 0.074422 -0.053446
v 0.030813 0.069862 -0.053449
v 0.025932 0.064841 -0.053669
v 0.015790 0.065164 -0.053446
v 0.018382 0.074411 -0.058324
v 0.027741 0.074607 -0.058380
v 0.030954 0.070067 -0.058400
v 0.024809 0.065332 -0.058364
v 0.015451 0.065137 -0.058309
v 0.011270 0.069687 -0.151064
v 0.017686 0.074631 -0.151102
v 0.027458 0.074835 -0.151160
v 0.030813 0.070095 -0.151181
v 0.024397 0.065151 -0.151144
v 0.014626 0.064947 -0.151085
v 0.011258 0.069687 -0.153068
v 0.017674 0.074631 -0.153105
v 0.027446 0.074835 -0.153163
v 0.030801 0.070096 -0.153184
v 0.024385 0.065152 -0.153147
v 0.014614 0.064947 -0.153089
v 0.016036 0.069787 -0.153096
v 0.019315 0.072313 -0.153115
v 0.024308 0.072418 -0.153145
v 0.026023 0.069996 -0.153156
v 0.022744 0.067469 -0.153137
v 0.017751 0.067365 -0.153107
v 0.016081 0.069785 -0.145688
v 0.019359 0.072312 -0.145707
v 0.024353 0.072416 -0.145737
v 0.026067 0.069994 -0.145748
v 0.022789 0.067468 -0.145729
v 0.017795 0.067363 -0.145699
v 0.030235 0.066530 -0.053450
v 0.030206 0.075702 -0.053445
v 0.012276 0.075702 -0.053445
v 0.030840 0.075702 -0.053445
v 0.030798 0.066530 -0.053450
v 0.031452 0.069875 -0.053449
v 0.012117 0.058454 -0.053457
v 0.012227 0.058477 -0.085078
v 0.016445 0.052092 -0.053243
v 0.016795 0.052112 -0.085078
v 0.026014 0.052076 -0.053460
v 0.025932 0.052112 -0.085078
v 0.030504 0.058416 -0.053456
v 0.030500 0.058477 -0.085078
v 0.011010 0.058452 -0.053456
v 0.025932 0.064841 -0.085078
v 0.031452 0.052268 -0.053460
v 0.016795 0.064841 -0.085078
v 0.030826 0.048470 -0.053463
v 0.011870 0.048470 -0.053463
v 0.011887 0.068202 -0.053450
v 0.031452 0.058452 -0.053456
v 0.029540 0.059814 -0.085078
v 0.011010 0.052318 -0.053460
v 0.029543 0.059766 -0.053501
v 0.029579 0.059759 -0.085083
v 0.029582 0.059710 -0.053154
v 0.025892 0.064897 -0.085083
v 0.025892 0.064897 -0.053326
v 0.030004 0.060063 -0.085082
v 0.030007 0.060014 -0.053153
v 0.026316 0.065200 -0.085082
v 0.026316 0.065200 -0.053325
v 0.012982 0.060034 -0.053454
v 0.013302 0.059975 -0.085078
v 0.016950 0.065016 -0.085112
v 0.015870 0.065362 -0.052264
v 0.013197 0.059786 -0.085112
v 0.012852 0.059849 -0.052273
v 0.016417 0.065352 -0.085126
v 0.015337 0.065699 -0.052277
v 0.012663 0.060122 -0.085126
v 0.012319 0.060185 -0.052286
v 0.013822 0.046099 -0.086147
v 0.008326 0.054722 -0.085078
v 0.028886 0.046099 -0.086147
v 0.034382 0.054722 -0.085078
v 0.033402 0.056927 -0.085078
v 0.013822 0.065215 -0.085078
v 0.028886 0.065215 -0.085078
v 0.009497 0.057192 -0.085078
v 0.013822 0.046099 -0.133639
v 0.010710 0.050244 -0.137608
v 0.028886 0.046099 -0.133639
v 0.031998 0.050244 -0.137608
v 0.034834 0.056927 -0.138236
v 0.013822 0.064948 -0.137379
v 0.028886 0.064948 -0.137379
v 0.008064 0.057192 -0.138236
v 0.030841 0.062311 -0.137661
v 0.011838 0.062275 -0.137674
v 0.031089 0.056817 -0.138125
v 0.029042 0.051995 -0.137672
v 0.028207 0.060702 -0.137710
v 0.013681 0.051995 -0.137672
v 0.011772 0.057009 -0.138125
v 0.014495 0.060676 -0.137720
v 0.028614 0.056830 -0.149996
v 0.025448 0.052008 -0.149543
v 0.025004 0.060715 -0.149581
v 0.017272 0.052008 -0.149543
v 0.014249 0.057022 -0.149996
v 0.017706 0.060689 -0.149591
v 0.024799 0.056682 -0.151722
v 0.023303 0.054404 -0.151508
v 0.023094 0.058517 -0.151526
v 0.019441 0.054404 -0.151508
v 0.018013 0.056772 -0.151722
v 0.019646 0.058505 -0.151530
vn -1.000000 0.000000 0.000000
vn 0.000000 -0.252400 -0.967600
vn 1.000000 0.000000 0.000000
vn 0.000000 0.464700 0.885500
vn 0.000000 -0.967100 0.254300
vn -0.000000 -1.000000 -0.000700
vn 0.000000 0.108200 0.994100
vn 0.000000 0.509900 0.860300
vn 0.000000 0.498700 0.866800
vn 0.000000 0.541900 0.840500
vn 0.000000 -0.509900 -0.860300
vn 0.000000 -0.463600 -0.886000
vn 0.000000 -0.344500 -0.938800
vn 0.000000 0.003200 -1.000000
vn 0.000000 1.000000 0.003200
vn 0.000000 0.000000 1.000000
vn 0.000000 -0.996900 0.078900
vn 0.000000 -0.265700 -0.964100
vn 0.000000 -0.599700 -0.800200
vn 0.000000 0.207600 -0.978200
vn 0.000000 0.579700 -0.814900
vn 0.000000 -1.000000 0.000000
vn 0.000000 1.000000 0.000000
vn -0.000000 -0.504900 0.863200
vn 0.000000 -0.423800 -0.905800
vn 0.000000 0.320600 0.947200
vn 0.000000 0.907900 0.419200
vn 0.000000 0.808400 0.588600
vn 0.000000 0.625300 0.780400
vn 0.000000 -0.826900 -0.562400
vn 0.000000 -0.733200 -0.680000
vn 0.000000 -0.590700 -0.806900
vn 0.000000 0.999800 0.019600
vn 0.000000 -0.564700 -0.825300
vn 0.000000 -0.362700 -0.931900
vn 0.000000 -0.376400 -0.926500
vn -0.000000 0.005700 1.000000
vn -0.000000 -0.073200 0.997300
vn 0.000000 0.957300 0.289100
vn 0.000000 0.966200 0.257800
vn 0.000000 0.000200 -1.000000
vn 0.000000 1.000000 0.006900
vn -0.750500 -0.000500 0.660900
vn 0.000000 -0.000900 1.000000
vn 0.750500 -0.000500 0.660900
vn 0.000000 0.739700 0.673000
vn 0.000000 -0.953100 0.302600
vn 0.000000 0.990700 0.136400
vn 0.000000 0.997000 0.076800
vn 0.000000 0.651100 -0.759000
vn 0.000000 0.624300 0.781200
vn 0.000000 -1.000000 -0.004800
vn 0.000000 0.524000 -0.851700
vn 0.000000 -1.000000 -0.000500
vn 0.000000 -1.000000 -0.003500
vn 0.000000 -0.980800 0.194800
vn 0.000000 -0.619500 0.785000
vn 0.000000 0.299900 0.954000
vn 0.000000 0.035200 0.999400
vn 0.000000 -0.054500 0.998500
vn 0.000000 -0.244600 0.969600
vn -0.000000 -0.700500 -0.713700
vn 0.000000 -0.521000 -0.853600
vn -0.000000 -0.071000 -0.997500
vn 0.000000 0.109700 -0.994000
vn 0.000000 -1.000000 0.000800
vn 0.000000 -0.077100 -0.997000
vn 0.000000 -0.000700 1.000000
vn 0.000000 0.017100 0.999900
vn 0.000000 0.000700 -1.000000
vn 0.000000 -1.000000 0.001000
vn 0.223500 0.162500 -0.961100
vn 0.003900 -0.441600 -0.897200
vn 0.011600 -0.878600 0.477400
vn -0.014600 0.441900 -0.896900
vn 0.006000 -0.000200 1.000000
vn -0.627300 -0.432600 0.647600
vn 0.510200 -0.619400 0.596700
vn 0.005900 -0.000200 1.000000
vn 0.020900 -0.999800 -0.000300
vn -0.816200 -0.577800 0.004800
vn 0.610300 -0.792100 -0.003800
vn 0.816200 0.577800 -0.004800
vn -0.020900 0.999800 0.000300
vn -0.610300 0.792100 0.003800
vn -0.633300 0.773400 0.026900
vn -0.012100 0.999700 0.020800
vn 0.823400 0.566500 0.032100
vn 0.658900 -0.742500 -0.120700
vn -0.806900 -0.589200 0.043000
vn -0.007200 -0.998900 -0.047400
vn 0.225100 -0.299200 -0.927300
vn -0.236200 0.299500 -0.924400
vn 0.583000 0.425200 0.692300
vn 0.016500 0.578500 0.815500
vn -0.234900 -0.162100 -0.958400
vn -0.278200 0.294000 0.914400
vn -0.006000 0.000200 -1.000000
vn -0.000200 0.000700 -1.000000
vn 0.000100 0.000700 -1.000000
vn -0.000000 0.000500 -1.000000
vn -0.000100 0.000500 -1.000000
vn -0.819600 -0.573000 -0.006300
vn -0.000800 -1.000000 -0.000900
vn 0.814200 -0.580500 -0.002000
vn 0.016700 0.999800 -0.004800
vn -0.027600 -0.089500 0.995600
vn -0.845900 0.533200 -0.006100
vn 0.007900 0.016200 0.999800
vn -0.812400 -0.583100 -0.000800
vn 0.034900 0.008500 -0.999400
vn 0.033000 -0.005300 -0.999400
vn -0.813600 -0.581400 -0.000000
vn -0.000900 0.000700 -1.000000
vn -0.581500 0.813600 0.000000
vn 0.813600 0.581400 0.000900
vn -0.003400 0.000700 -1.000000
vn -0.811800 -0.583000 -0.032700
vn -0.814800 -0.579800 -0.000400
vn 0.813600 0.581400 0.000400
vn -0.016000 0.021800 0.999600
vn 0.581400 -0.813600 -0.001300
vn 0.000300 0.000200 -1.000000
vn 0.798100 -0.601600 0.032100
vn -0.019200 0.008900 0.999800
vn 0.859300 -0.511500 0.009800
vn 0.877000 -0.480100 0.021300
vn 0.662100 -0.475100 0.579600
vn -0.845800 0.533100 -0.021700
vn 0.533100 0.846000 0.008600
vn -0.533200 -0.846000 -0.004000
vn 0.017000 -0.012200 -0.999800
vn 0.841800 0.539700 0.010100
vn 0.027700 -0.089600 0.995600
vn 0.000000 -0.175000 0.984600
vn 0.000000 -0.691600 -0.722300
vn 0.000000 1.000000 -0.005100
vn 0.829700 -0.558200 0.005200
vn -0.829700 -0.558200 0.005200
vn -0.987900 -0.154900 -0.002300
vn -0.842800 0.538100 0.010100
vn 0.978900 -0.204400 -0.000100
vn 0.034100 0.084800 -0.995800
vn -0.027100 -0.082100 -0.996300
vn 0.000300 0.108100 -0.994100
vn 0.000000 -1.000000 -0.001100
vn -0.002500 1.000000 0.001100
vn -0.032000 0.082700 -0.996100
vn 0.000000 -0.036400 -0.999300
vn 0.000700 0.029400 -0.999600
vn 0.025900 -0.080200 -0.996400
vn 0.359700 0.423100 -0.831600
vn -0.353700 0.425500 -0.833000
vn -0.866800 -0.446500 -0.222000
vn 0.849900 -0.479800 -0.217700
vn -0.742900 0.645500 -0.177300
vn 0.745800 0.642100 -0.177600
vn 0.001300 0.108000 -0.994100
vn -0.000800 -0.091700 -0.995800
vn -0.001400 0.663300 -0.748400
vn 0.000000 -0.634100 -0.773300
vn -0.411800 -0.325300 -0.851200
vn 0.398300 -0.341500 -0.851300
usemtl None
s off
f 9//1 16//1 3//1 1//1
f 16//2 20//2 7//2 3//2
f 20//3 24//3 5//3 7//3
f 24//4 9//4 1//4 5//4
f 1//5 3//5 7//5 5//5
f 4//6 2//6 73//6 74//6
f 6//7 2//7 12//7 21//7
f 21//8 12//8 11//8 22//8
f 22//9 11//9 10//9 23//9
f 23//10 10//10 9//10 24//10
f 8//3 6//3 21//3 17//3
f 17//3 21//3 22//3 18//3
f 18//3 22//3 23//3 19//3
f 19//3 23//3 24//3 20//3
f 13//11 17//11 18//11 14//11
f 14//12 18//12 19//12 15//12
f 15//13 19//13 20//13 16//13
f 2//1 4//1 13//1 12//1
f 12//1 13//1 14//1 11//1
f 11//1 14//1 15//1 10//1
f 10//1 15//1 16//1 9//1
f 8//14 17//14 25//14 27//14
f 28//15 27//15 31//15 32//15
f 17//16 13//16 26//16 25//16
f 4//16 8//16 27//16 28//16
f 13//14 4//14 28//14 26//14
f 30//1 40//1 44//1 42//1
f 27//3 25//3 29//3 39//3 37//3 33//3 35//3 31//3
f 25//17 26//17 30//17 29//17
f 26//1 28//1 32//1 36//1 34//1 38//1 40//1 30//1
f 36//18 35//18 33//18 34//18
f 32//19 31//19 35//19 36//19
f 34//20 33//20 37//20 38//20
f 38//21 37//21 39//21 40//21
f 52//1 51//1 48//1 46//1
f 29//22 30//22 42//22 41//22
f 39//3 29//3 41//3 43//3
f 40//23 39//23 43//23 44//23
f 67//24 66//24 63//24 64//24
f 55//25 52//25 46//25 45//25
f 51//26 60//26 47//26 48//26
f 60//3 55//3 45//3 47//3
f 43//3 41//3 57//3 58//3
f 58//3 57//3 56//3 59//3
f 59//3 56//3 55//3 60//3
f 44//27 43//27 58//27 49//27
f 49//28 58//28 59//28 50//28
f 50//29 59//29 60//29 51//29
f 41//30 42//30 54//30 57//30
f 57//31 54//31 53//31 56//31
f 56//32 53//32 52//32 55//32
f 42//1 44//1 49//1 54//1
f 54//1 49//1 50//1 53//1
f 53//1 50//1 51//1 52//1
f 64//33 63//33 61//33 62//33
f 66//3 70//3 61//3 63//3
f 71//1 67//1 64//1 62//1
f 70//34 71//34 62//34 61//34
f 45//35 46//35 72//35 69//35
f 69//36 72//36 71//36 70//36
f 46//1 48//1 68//1 72//1
f 72//1 68//1 67//1 71//1
f 47//3 45//3 69//3 65//3
f 65//3 69//3 70//3 66//3
f 48//37 47//37 65//37 68//37
f 68//38 65//38 66//38 67//38
f 86//3 85//3 79//3 80//3
f 2//6 6//6 76//6 73//6
f 8//6 4//6 74//6 75//6
f 6//6 8//6 75//6 76//6
f 80//39 79//39 78//39 77//39
f 88//1 87//1 77//1 78//1
f 87//40 86//40 80//40 77//40
f 156//1 169//1 153//1 83//1 90//1
f 200//41 197//41 235//41 234//41
f 153//42 154//42 84//42 236//42 234//42 235//42 83//42
f 158//6 157//6 81//6 252//6 251//6 82//6
f 155//3 159//3 158//3 82//3 249//3 254//3 89//3
f 154//3 161//3 155//3 89//3 238//3 84//3
f 157//1 172//1 156//1 90//1 247//1 256//1 81//1
f 87//43 73//43 92//43 94//43
f 74//1 73//1 87//1 88//1
f 76//3 75//3 85//3 86//3
f 92//44 91//44 93//44 94//44
f 76//45 86//45 93//45 91//45
f 86//46 87//46 94//46 93//46
f 73//47 76//47 91//47 92//47
f 121//1 120//1 100//1 96//1
f 118//3 119//3 99//3 97//3
f 119//3 122//3 98//3 99//3
f 122//6 121//6 96//6 98//6
f 117//48 118//48 97//48 95//48
f 120//1 117//1 95//1 100//1
f 96//1 100//1 104//1 105//1
f 97//3 99//3 103//3 102//3
f 99//3 98//3 106//3 103//3
f 98//6 96//6 105//6 106//6
f 97//3 102//3 110//3 107//3
f 100//1 95//1 101//1 104//1
f 108//49 107//49 110//49 109//49
f 102//50 101//50 109//50 110//50
f 101//1 95//1 108//1 109//1
f 95//51 97//51 107//51 108//51
f 88//1 78//1 113//1 116//1
f 78//48 79//48 114//48 113//48
f 75//6 74//6 111//6 112//6
f 85//3 75//3 112//3 115//3
f 79//3 85//3 115//3 114//3
f 74//1 88//1 116//1 111//1
f 116//1 113//1 117//1 120//1
f 113//48 114//48 118//48 117//48
f 121//52 122//52 125//52 123//52
f 115//3 112//3 122//3 119//3
f 114//3 115//3 119//3 118//3
f 111//1 116//1 120//1 121//1
f 135//53 134//53 129//53 127//53
f 122//54 112//54 126//54 125//54
f 112//55 111//55 124//55 126//55
f 111//54 121//54 123//54 124//54
f 130//56 128//56 127//56 129//56
f 134//3 142//3 130//3 129//3
f 142//57 146//57 128//57 130//57
f 146//1 135//1 127//1 128//1
f 124//1 123//1 138//1 143//1
f 143//1 138//1 137//1 144//1
f 144//1 137//1 136//1 145//1
f 145//1 136//1 135//1 146//1
f 126//58 124//58 143//58 139//58
f 139//59 143//59 144//59 140//59
f 140//60 144//60 145//60 141//60
f 141//61 145//61 146//61 142//61
f 125//3 126//3 139//3 131//3
f 131//3 139//3 140//3 132//3
f 132//3 140//3 141//3 133//3
f 133//3 141//3 142//3 134//3
f 123//62 125//62 131//62 138//62
f 138//63 131//63 132//63 137//63
f 137//64 132//64 133//64 136//64
f 136//65 133//65 134//65 135//65
f 105//1 104//1 150//1 171//1 151//1
f 102//3 103//3 149//3 162//3 148//3
f 103//3 106//3 152//3 160//3 149//3
f 106//6 105//6 151//6 152//6
f 101//42 102//42 148//42 147//42
f 104//1 101//1 147//1 170//1 150//1
f 151//1 171//1 172//1 157//1
f 161//66 162//66 168//66 167//66
f 160//3 152//3 158//3 159//3
f 152//6 151//6 157//6 158//6
f 147//42 148//42 154//42 153//42
f 150//67 170//67 173//67 174//67
f 159//68 155//68 165//68 166//68
f 148//3 162//3 161//3 154//3
f 168//3 164//3 165//3 167//3
f 164//3 163//3 166//3 165//3
f 155//69 161//69 167//69 165//69
f 149//70 160//70 163//70 164//70
f 162//67 149//67 164//67 168//67
f 160//23 159//23 166//23 163//23
f 170//1 147//1 153//1 169//1
f 156//68 172//68 178//68 175//68
f 174//1 173//1 176//1 175//1
f 177//1 174//1 175//1 178//1
f 170//71 169//71 176//71 173//71
f 172//23 171//23 177//23 178//23
f 169//69 156//69 175//69 176//69
f 171//70 150//70 174//70 177//70
f 191//72 196//72 208//72 199//72
f 193//73 192//73 204//73 205//73
f 182//74 184//74 200//74 197//74
f 196//75 195//75 207//75 208//75
f 182//76 180//76 190//76 188//76 186//76 184//76
f 184//77 186//77 201//77 200//77
f 180//78 182//78 197//78 198//78
f 183//79 185//79 212//79 211//79
f 187//80 195//80 196//80 189//80
f 189//81 196//81 191//81 179//81
f 185//82 194//82 195//82 187//82
f 183//83 193//83 194//83 185//83
f 181//84 192//84 193//84 183//84
f 179//85 191//85 192//85 181//85
f 199//86 198//86 197//86 204//86
f 204//87 197//87 200//87 205//87
f 205//88 200//88 201//88 206//88
f 206//89 201//89 202//89 207//89
f 208//90 203//90 198//90 199//90
f 207//91 202//91 203//91 208//91
f 192//92 191//92 199//92 204//92
f 195//93 194//93 206//93 207//93
f 190//94 180//94 198//94 203//94
f 188//95 190//95 203//95 202//95
f 194//96 193//96 205//96 206//96
f 186//97 188//97 202//97 201//97
f 212//82 213//82 219//82 218//82
f 189//76 179//76 209//76 214//76
f 185//76 187//76 213//76 212//76
f 181//76 183//76 211//76 210//76
f 187//76 189//76 214//76 213//76
f 179//76 181//76 210//76 209//76
f 216//98 217//98 223//98 222//98
f 210//84 211//84 217//84 216//84
f 213//80 214//80 220//80 219//80
f 211//83 212//83 218//83 217//83
f 209//85 210//85 216//85 215//85
f 214//81 209//81 215//81 220//81
f 221//82 222//82 228//82 227//82
f 219//98 220//98 226//98 225//98
f 217//98 218//98 224//98 223//98
f 215//98 216//98 222//98 221//98
f 220//98 215//98 221//98 226//98
f 218//98 219//98 225//98 224//98
f 227//98 228//98 229//98 230//98 231//98 232//98
f 226//83 221//83 227//83 232//83
f 224//85 225//85 231//85 230//85
f 222//80 223//80 229//80 228//80
f 225//84 226//84 232//84 231//84
f 223//81 224//81 230//81 229//81
f 198//99 253//99 90//99 83//99 235//99 197//99
f 233//100 198//100 197//100 200//100
f 238//101 201//101 236//101 84//101
f 89//101 237//101 201//101 238//101
f 237//102 233//102 200//102 234//102 236//102 201//102
f 239//103 240//103 242//103 241//103
f 241//104 242//104 244//104 243//104
f 243//105 244//105 246//105 245//105
f 202//106 248//106 250//106 203//106
f 242//107 240//107 277//107 276//107
f 266//108 267//108 240//108 239//108
f 239//109 241//109 243//109 245//109 257//109 202//109 203//109 266//109
f 82//70 251//70 243//70 249//70
f 249//70 243//70 245//70 254//70
f 257//110 255//110 258//110 259//110
f 254//70 245//70 237//70 89//70
f 252//111 81//111 256//111 241//111
f 241//112 256//112 247//112 239//112
f 248//113 202//113 261//113 260//113
f 239//114 247//114 90//114 253//114
f 260//115 261//115 265//115 264//115
f 245//116 246//116 255//116 257//116
f 251//117 252//117 241//117 239//117 253//117 198//117 233//117 237//117 245//117 243//117
f 255//118 248//118 260//118 258//118
f 202//119 257//119 259//119 261//119
f 263//120 262//120 264//120 265//120
f 261//121 259//121 263//121 265//121
f 259//122 258//122 262//122 263//122
f 258//123 260//123 264//123 262//123
f 203//124 250//124 268//124 269//124
f 271//125 269//125 273//125 275//125
f 267//126 266//126 271//126 270//126
f 266//127 203//127 269//127 271//127
f 250//128 267//128 270//128 268//128
f 273//129 272//129 274//129 275//129
f 269//130 268//130 272//130 273//130
f 270//131 271//131 275//131 274//131
f 268//132 270//132 274//132 272//132
f 282//133 280//133 288//133 292//133 290//133
f 255//16 246//16 279//16 280//16
f 240//16 267//16 283//16 277//16
f 248//16 255//16 280//16 282//16
f 246//134 244//134 278//134 279//134
f 250//16 248//16 282//16 281//16
f 267//16 250//16 281//16 283//16
f 244//135 242//135 276//135 278//135
f 284//136 285//136 287//136 286//136
f 281//137 282//137 290//137 289//137
f 279//138 278//138 286//138 287//138
f 276//139 277//139 285//139 284//139
f 277//140 283//140 291//140 285//140
f 283//141 281//141 289//141 293//141 291//141
f 280//142 279//142 287//142 288//142
f 278//22 276//22 284//22 286//22
f 291//143 293//143 299//143 298//143
f 288//144 287//144 295//144 294//144
f 292//145 293//145 289//145 290//145
f 295//146 297//146 303//146 301//146
f 299//147 296//147 302//147 305//147
f 292//148 288//148 294//148 296//148
f 287//149 285//149 297//149 295//149
f 293//150 292//150 296//150 299//150
f 285//151 291//151 298//151 297//151
f 302//152 300//152 306//152 308//152
f 304//153 305//153 311//153 310//153
f 297//154 298//154 304//154 303//154
f 294//155 295//155 301//155 300//155
f 298//156 299//156 305//156 304//156
f 296//157 294//157 300//157 302//157
f 306//158 310//158 311//158 308//158
f 309//159 310//159 306//159 307//159
f 305//160 302//160 308//160 311//160
f 301//161 303//161 309//161 307//161
f 303//162 304//162 310//162 309//162
f 300//163 301//163 307//163 306//163
