# Blender v2.76 (sub 0) OBJ File: 'pistola.blend'
# www.blender.org
mtllib pistola.mtl
o Cube_Cube.002
v 0.018110 -0.000574 -0.106561
v 0.018110 0.041731 -0.109811
v 0.018110 -0.000591 -0.131464
v 0.018110 0.041739 -0.135774
v 0.034910 -0.000574 -0.106561
v 0.034910 0.041731 -0.109811
v 0.034910 -0.000591 -0.131464
v 0.034910 0.041739 -0.135774
v 0.018110 0.037392 -0.109573
v 0.018110 0.035733 -0.138448
v 0.034910 0.035733 -0.138448
v 0.034910 0.037392 -0.109573
v 0.018110 0.041592 -0.199327
v 0.034910 0.041592 -0.199327
v 0.018110 0.038465 -0.195178
v 0.034910 0.038465 -0.195178
v 0.018110 0.033328 -0.136337
v 0.018110 0.027037 -0.135375
v 0.018110 0.021581 -0.132176
v 0.018110 0.016208 -0.131217
v 0.018110 0.010835 -0.130257
v 0.018110 0.005462 -0.129298
v 0.034910 0.033328 -0.136337
v 0.034910 0.027037 -0.135375
v 0.034910 0.021581 -0.132176
v 0.034910 0.016208 -0.131217
v 0.034910 0.010835 -0.130257
v 0.034910 0.005462 -0.129298
v 0.034910 0.032324 -0.114329
v 0.034910 0.026955 -0.113589
v 0.034910 0.021585 -0.111768
v 0.034910 0.016215 -0.109224
v 0.034910 0.010845 -0.106321
v 0.034910 0.005475 -0.106014
v 0.018110 0.005475 -0.106014
v 0.018110 0.010845 -0.106321
v 0.018110 0.016215 -0.109224
v 0.018110 0.021585 -0.111768
v 0.018110 0.026955 -0.113589
v 0.018110 0.032324 -0.114329
v 0.018110 0.035733 -0.138448
v 0.034910 0.035733 -0.138448
v 0.034910 0.041739 -0.135774
v 0.018110 0.041739 -0.135774
v 0.018110 0.037037 -0.141788
v 0.018110 0.037053 -0.150213
v 0.018110 0.036997 -0.154599
v 0.018110 0.038096 -0.161870
v 0.018110 0.038328 -0.168564
v 0.018110 0.038345 -0.175258
v 0.018110 0.038361 -0.181952
v 0.018110 0.038305 -0.188646
v 0.034910 0.038305 -0.188646
v 0.034910 0.038361 -0.181952
v 0.034910 0.038345 -0.175258
v 0.034910 0.038328 -0.168564
v 0.034910 0.038096 -0.161870
v 0.034910 0.036997 -0.154599
v 0.034910 0.037053 -0.150213
v 0.034910 0.037037 -0.141788
v 0.034910 0.041608 -0.190378
v 0.034910 0.041624 -0.183573
v 0.034910 0.041641 -0.176769
v 0.034910 0.041657 -0.169964
v 0.034910 0.041673 -0.163159
v 0.034910 0.041689 -0.156354
v 0.034910 0.041706 -0.149549
v 0.034910 0.041722 -0.142744
v 0.018110 0.041608 -0.190378
v 0.018110 0.041624 -0.183573
v 0.018110 0.041641 -0.176769
v 0.018110 0.041657 -0.169964
v 0.018110 0.041673 -0.163159
v 0.018110 0.041689 -0.156354
v 0.018110 0.041706 -0.149549
v 0.018110 0.041722 -0.142744
v 0.018110 0.037537 -0.100485
v 0.018110 0.038426 -0.100201
v 0.034910 0.038426 -0.100201
v 0.034910 0.037537 -0.100485
v 0.018110 0.035251 -0.150172
v 0.018110 0.035195 -0.154557
v 0.034910 0.035195 -0.154557
v 0.034910 0.035251 -0.150172
v 0.024827 0.035210 -0.151925
v 0.024827 0.035198 -0.152803
v 0.028193 0.035198 -0.152803
v 0.028193 0.035210 -0.151925
v 0.024827 0.030363 -0.151925
v 0.024827 0.030351 -0.152803
v 0.028193 0.030351 -0.152803
v 0.028193 0.030363 -0.151925
v 0.024827 0.026246 -0.151670
v 0.024827 0.026303 -0.153713
v 0.028193 0.026303 -0.153713
v 0.028193 0.026246 -0.151670
v 0.028193 0.027215 -0.153720
v 0.024827 0.027215 -0.153720
v 0.028193 0.027430 -0.151671
v 0.024827 0.027430 -0.151671
v 0.024811 0.027037 -0.135375
v 0.028192 0.027037 -0.135375
v 0.028192 0.028300 -0.137905
v 0.024811 0.028300 -0.137905
v 0.018110 0.030987 -0.136186
v 0.018110 0.029644 -0.137233
v 0.018110 0.028300 -0.137905
v 0.034910 0.030987 -0.136186
v 0.034910 0.029644 -0.137233
v 0.034910 0.028300 -0.137905
v 0.034910 0.030985 -0.114144
v 0.034910 0.029643 -0.113959
v 0.034910 0.028301 -0.113775
v 0.018110 0.028301 -0.113775
v 0.018110 0.029643 -0.113959
v 0.018110 0.030985 -0.114144
v 0.034910 0.027851 -0.136937
v 0.034910 0.027402 -0.136219
v 0.018110 0.037885 -0.106963
v 0.018110 0.037885 -0.104582
v 0.018110 0.037676 -0.102201
v 0.018110 0.040484 -0.102787
v 0.018110 0.040977 -0.105168
v 0.018110 0.041122 -0.107549
v 0.034910 0.037885 -0.106963
v 0.034910 0.037885 -0.104582
v 0.034910 0.037676 -0.102201
v 0.034910 0.040484 -0.102787
v 0.034910 0.040977 -0.105168
v 0.034910 0.041122 -0.107549
v 0.018110 0.034858 -0.113103
v 0.034910 0.034858 -0.113103
v 0.028450 0.028290 -0.141202
v 0.024570 0.028290 -0.141202
v 0.028450 0.027988 -0.143175
v 0.024570 0.027988 -0.143175
v 0.024570 0.036728 -0.141483
v 0.024570 0.035520 -0.138788
v 0.028450 0.035520 -0.138788
v 0.028450 0.036728 -0.141483
v 0.028192 0.027153 -0.141420
v 0.028192 0.026166 -0.139617
v 0.024815 0.026166 -0.139617
v 0.024815 0.027153 -0.141420
v 0.024570 0.030039 -0.141692
v 0.024570 0.031909 -0.140996
v 0.024570 0.034544 -0.141031
v 0.028450 0.034544 -0.141031
v 0.028450 0.031909 -0.140996
v 0.028450 0.030039 -0.141692
v 0.028450 0.030258 -0.139379
v 0.028450 0.031919 -0.138927
v 0.028450 0.033859 -0.138857
v 0.024570 0.033859 -0.138857
v 0.024570 0.031919 -0.138927
v 0.024570 0.030258 -0.139379
v 0.024827 0.027675 -0.153713
v 0.028193 0.027675 -0.153713
v 0.028193 0.027807 -0.151892
v 0.024827 0.027807 -0.151892
v 0.024738 0.039560 -0.121309
v 0.018110 0.054822 -0.114701
v 0.018110 0.054829 -0.140664
v 0.034910 0.054829 -0.140664
v 0.034910 0.054822 -0.114701
v 0.018110 0.054466 -0.200466
v 0.034910 0.054466 -0.200466
v 0.034910 0.054813 -0.147634
v 0.034910 0.054829 -0.140664
v 0.018110 0.054813 -0.147634
v 0.018110 0.054829 -0.140664
v 0.034910 0.054699 -0.195268
v 0.034910 0.054715 -0.188463
v 0.034910 0.054731 -0.181658
v 0.034910 0.054748 -0.174853
v 0.034910 0.054764 -0.168048
v 0.034910 0.054780 -0.161243
v 0.034910 0.054796 -0.154438
v 0.018110 0.054699 -0.195268
v 0.018110 0.054715 -0.188463
v 0.018110 0.054731 -0.181658
v 0.018110 0.054748 -0.174853
v 0.018110 0.054764 -0.168048
v 0.018110 0.054780 -0.161243
v 0.018110 0.054796 -0.154438
v 0.018110 0.051280 -0.113378
v 0.034910 0.051280 -0.113378
v 0.018110 0.051288 -0.139341
v 0.034910 0.051288 -0.139341
v 0.029446 0.046838 -0.110061
v 0.023573 0.046838 -0.110061
v 0.023573 0.051178 -0.112519
v 0.029446 0.051178 -0.112519
v 0.029446 0.050968 -0.107714
v 0.023573 0.050968 -0.107714
v 0.023573 0.051968 -0.108084
v 0.029446 0.051968 -0.108084
v 0.029446 0.051406 -0.110364
v 0.029446 0.048569 -0.109409
v 0.023573 0.048569 -0.109409
v 0.023573 0.051406 -0.110364
v 0.034910 0.052677 -0.194513
v 0.034910 0.048314 -0.192883
v 0.034910 0.048298 -0.201111
v 0.034910 0.052661 -0.200793
v 0.034910 0.052791 -0.146878
v 0.034910 0.048428 -0.145249
v 0.034910 0.048411 -0.152053
v 0.034910 0.052775 -0.153683
v 0.018110 0.052759 -0.160488
v 0.018110 0.048395 -0.158858
v 0.018110 0.048411 -0.152053
v 0.018110 0.052775 -0.153683
v 0.018110 0.048428 -0.145249
v 0.018110 0.052791 -0.146878
v 0.034910 0.052808 -0.139909
v 0.034910 0.048444 -0.138279
v 0.018110 0.048314 -0.192883
v 0.018110 0.052677 -0.194513
v 0.018110 0.052661 -0.200793
v 0.018110 0.048298 -0.201111
v 0.034910 0.052694 -0.187708
v 0.034910 0.048330 -0.186078
v 0.018110 0.048444 -0.138279
v 0.018110 0.052808 -0.139909
v 0.018110 0.048330 -0.186078
v 0.018110 0.052694 -0.187708
v 0.034910 0.052710 -0.180903
v 0.034910 0.048346 -0.179273
v 0.018110 0.048346 -0.179273
v 0.018110 0.052710 -0.180903
v 0.034910 0.052726 -0.174098
v 0.034910 0.048363 -0.172468
v 0.018110 0.048363 -0.172468
v 0.018110 0.052726 -0.174098
v 0.034910 0.052742 -0.167293
v 0.034910 0.048379 -0.165663
v 0.018110 0.048379 -0.165663
v 0.018110 0.052742 -0.167293
v 0.034910 0.052759 -0.160488
v 0.034910 0.048395 -0.158858
v 0.033728 0.052677 -0.194513
v 0.033728 0.048314 -0.192883
v 0.034155 0.048298 -0.200329
v 0.034155 0.052661 -0.200011
v 0.033728 0.052791 -0.146878
v 0.033728 0.048428 -0.145249
v 0.033728 0.048411 -0.152053
v 0.033728 0.052775 -0.153683
v 0.033728 0.052808 -0.139909
v 0.033728 0.048444 -0.138279
v 0.033728 0.052694 -0.187708
v 0.033728 0.048330 -0.186078
v 0.033728 0.052710 -0.180903
v 0.033728 0.048346 -0.179273
v 0.033728 0.052726 -0.174098
v 0.033728 0.048363 -0.172468
v 0.033728 0.052742 -0.167293
v 0.033728 0.048379 -0.165663
v 0.033728 0.052759 -0.160488
v 0.033728 0.048395 -0.158858
v 0.019292 0.052759 -0.160488
v 0.019292 0.048395 -0.158858
v 0.019292 0.048411 -0.152053
v 0.019292 0.052775 -0.153683
v 0.019292 0.048428 -0.145249
v 0.019292 0.052791 -0.146878
v 0.019292 0.048314 -0.192883
v 0.019292 0.052677 -0.194513
v 0.018411 0.053140 -0.199408
v 0.018411 0.048777 -0.199726
v 0.019292 0.048444 -0.138279
v 0.019292 0.052808 -0.139909
v 0.019292 0.048330 -0.186078
v 0.019292 0.052694 -0.187708
v 0.019292 0.048346 -0.179273
v 0.019292 0.052710 -0.180903
v 0.019292 0.048363 -0.172468
v 0.019292 0.052726 -0.174098
v 0.019292 0.048379 -0.165663
v 0.019292 0.052742 -0.167293
v 0.021832 0.043059 -0.199807
v 0.031188 0.043059 -0.199807
v 0.021832 0.047952 -0.200800
v 0.031188 0.047952 -0.200800
v 0.031188 0.051095 -0.200623
v 0.021832 0.051095 -0.200623
v 0.021832 0.042925 -0.201673
v 0.031188 0.042925 -0.201673
v 0.021832 0.047817 -0.202666
v 0.031188 0.047817 -0.202666
v 0.031188 0.050960 -0.202489
v 0.021832 0.050960 -0.202489
v 0.022750 0.043771 -0.201791
v 0.030269 0.043771 -0.201791
v 0.022750 0.047703 -0.202590
v 0.030269 0.047703 -0.202590
v 0.030269 0.050228 -0.202447
v 0.022750 0.050228 -0.202447
v 0.022750 0.043883 -0.200239
v 0.030269 0.043883 -0.200239
v 0.022750 0.047815 -0.201037
v 0.030269 0.047815 -0.201037
v 0.030269 0.050340 -0.200894
v 0.022750 0.050340 -0.200894
vn -1.000000 -0.000000 0.000000
vn 0.000000 0.337000 -0.941500
vn 1.000000 0.000000 0.000000
vn -0.000000 -0.090000 0.995900
vn 0.000000 -1.000000 0.000700
vn 0.000000 -0.999700 -0.024500
vn 0.000000 -0.798700 -0.601800
vn 0.000000 -0.435400 0.900200
vn 0.000000 0.136400 0.990600
vn 0.000000 0.321300 0.947000
vn 0.000000 0.428000 0.903800
vn 0.000000 0.475700 0.879600
vn 0.000000 0.057000 0.998400
vn 0.000000 -0.659800 -0.751400
vn 0.000000 -0.505800 -0.862600
vn 0.000000 -0.175700 -0.984400
vn 0.000000 0.000000 1.000000
vn 0.000000 -0.349900 -0.936800
vn 0.000000 0.349900 0.936800
vn 0.000000 -1.000000 -0.001900
vn -0.000000 -0.988800 -0.149400
vn -0.000000 -0.999400 -0.034700
vn 0.000000 -1.000000 -0.002400
vn 0.000000 -1.000000 0.008300
vn 0.000000 -0.304100 0.952600
vn 0.000000 -0.996700 -0.080800
vn 0.000000 0.782400 0.622800
vn 0.000000 -1.000000 0.002000
vn 0.000000 0.023100 0.999700
vn 0.000000 -0.023100 -0.999700
vn 0.002800 -0.999900 0.012700
vn 0.000000 -0.999700 0.023500
vn -0.002800 -0.999900 0.012700
vn 0.000000 -0.007800 -1.000000
vn 0.000000 0.000000 -1.000000
vn 0.000000 -0.999600 -0.027800
vn 0.000000 0.505800 0.862600
vn -0.000000 0.015300 -0.999900
vn 0.000000 0.894600 0.446800
vn 0.000000 -0.979600 0.201100
vn 0.000000 0.950700 -0.310200
vn -1.000000 -0.001300 -0.000700
vn 0.000000 -0.064500 -0.997900
vn 0.000000 0.615000 -0.788600
vn -0.001100 -0.884600 -0.466400
vn 0.000000 0.447300 -0.894400
vn 0.000000 0.965600 0.259900
vn 0.000000 -0.917500 -0.397600
vn 0.000000 -0.907300 -0.420600
vn 0.000000 -0.894600 -0.446800
vn 0.000000 0.998200 0.060800
vn 0.000000 0.979200 0.202700
vn 0.000000 -0.982600 0.185500
vn 0.000000 -1.000000 0.000000
vn 0.000000 -0.996200 -0.087300
vn 0.000000 -0.812400 0.583100
vn 0.000000 0.586000 -0.810300
vn 0.000000 -0.988500 0.151300
vn -0.038300 -0.922600 -0.384000
vn 0.038300 -0.922600 -0.384000
vn 0.000000 -0.847300 0.531200
vn 0.000000 -0.679500 0.733600
vn 0.000000 -0.701800 -0.712400
vn -1.000000 -0.000900 -0.001100
vn 0.000000 0.999600 0.026900
vn 0.000000 -1.000000 -0.006600
vn 0.000000 -0.041800 0.999100
vn 0.000000 -0.035900 0.999400
vn 0.000000 -0.262700 0.964900
vn 0.000000 -0.202800 -0.979200
vn 0.000000 -0.013200 -0.999900
vn 0.000000 0.348700 -0.937200
vn 0.000000 0.321800 -0.946800
vn 0.000000 0.012700 0.999900
vn 0.000000 1.000000 0.000300
vn 0.000000 0.999000 -0.044700
vn 0.000000 1.000000 -0.002400
vn 0.000000 0.178300 -0.984000
vn 0.000000 0.048800 0.998800
vn 0.000000 0.993000 0.118200
vn -0.227300 0.387500 0.893400
vn 0.227300 0.387500 0.893400
vn 0.000000 0.347100 0.937800
vn 0.000000 -0.577200 0.816600
vn 0.000000 0.970900 -0.239300
vn 0.000000 0.994500 -0.105200
vn 0.000000 -0.352400 0.935900
vn 0.000000 -1.000000 0.002400
vn 0.361500 -0.930100 -0.065700
vn -0.347200 0.936600 0.048100
vn 0.012900 -0.232800 -0.972400
vn -0.081000 0.065600 -0.994600
vn 0.997800 0.009900 0.065800
vn -0.000800 1.000000 -0.002100
vn 0.001100 -1.000000 0.002700
vn 0.718000 -0.050600 0.694200
vn -0.988400 0.022500 0.150000
vn -0.975700 -0.015900 0.218300
vn 0.000000 -0.107500 -0.994200
vn 0.081000 0.065600 -0.994600
vn 0.000000 -0.310800 -0.950500
vn -0.012900 -0.232800 -0.972400
vn -0.056800 -0.198600 -0.978400
vn 0.089900 0.056000 -0.994400
vn 0.000000 0.997400 -0.071900
vn 0.000000 -0.997400 0.071900
vn 0.000000 -0.138600 -0.990300
vn -0.089900 0.056000 -0.994400
vn 0.056800 -0.198600 -0.978400
vn 0.000000 -0.057100 -0.998400
vn 0.000000 -0.198900 -0.980000
vn 0.000000 0.056300 -0.998400
usemtl None
s off
f 35//1 22//1 3//1 1//1
f 22//2 28//2 7//2 3//2
f 28//3 34//3 5//3 7//3
f 34//4 35//4 1//4 5//4
f 1//5 3//5 7//5 5//5
f 215//1 225//1 171//1 170//1
f 122//1 121//1 77//1 78//1
f 8//3 6//3 12//3 11//3
f 53//6 52//6 15//6 16//6
f 2//1 4//1 10//1 9//1
f 13//7 14//7 16//7 15//7
f 61//3 53//3 16//3 14//3
f 222//3 202//3 172//3 173//3
f 52//1 69//1 13//1 15//1
f 132//8 131//8 40//8 29//8
f 113//9 114//9 39//9 30//9
f 30//10 39//10 38//10 31//10
f 31//11 38//11 37//11 32//11
f 32//12 37//12 36//12 33//12
f 33//13 36//13 35//13 34//13
f 11//3 12//3 132//3 29//3 23//3
f 110//3 113//3 30//3 24//3 118//3 117//3
f 24//3 30//3 31//3 25//3
f 25//3 31//3 32//3 26//3
f 26//3 32//3 33//3 27//3
f 27//3 33//3 34//3 28//3
f 10//14 11//14 23//14 17//14
f 18//15 101//15 102//15 24//15 25//15 19//15
f 19//16 25//16 26//16 20//16
f 20//16 26//16 27//16 21//16
f 21//16 27//16 28//16 22//16
f 9//1 10//1 17//1 40//1 131//1
f 114//1 107//1 18//1 39//1
f 39//1 18//1 19//1 38//1
f 38//1 19//1 20//1 37//1
f 37//1 20//1 21//1 36//1
f 36//1 21//1 22//1 35//1
f 10//17 4//17 44//17 41//17
f 4//17 8//17 43//17 44//17
f 8//17 11//17 42//17 43//17
f 11//17 10//17 41//17 42//17
f 41//1 44//1 76//1 45//1
f 45//1 76//1 75//1 46//1
f 46//1 75//1 74//1 47//1
f 47//1 74//1 73//1 48//1
f 48//1 73//1 72//1 49//1
f 49//1 72//1 71//1 50//1
f 50//1 71//1 70//1 51//1
f 51//1 70//1 69//1 52//1
f 220//1 219//1 179//1 166//1
f 216//3 206//3 168//3 169//3
f 189//18 188//18 163//18 164//18
f 213//1 215//1 170//1 185//1
f 202//3 205//3 167//3 172//3
f 206//3 209//3 178//3 168//3
f 210//1 213//1 185//1 184//1
f 186//19 187//19 165//19 162//19
f 43//3 42//3 60//3 68//3
f 68//3 60//3 59//3 67//3
f 67//3 59//3 58//3 66//3
f 66//3 58//3 57//3 65//3
f 65//3 57//3 56//3 64//3
f 64//3 56//3 55//3 63//3
f 63//3 55//3 54//3 62//3
f 62//3 54//3 53//3 61//3
f 60//20 45//20 46//20 59//20
f 46//1 47//1 82//1 81//1
f 58//21 47//21 48//21 57//21
f 57//22 48//22 49//22 56//22
f 56//23 49//23 50//23 55//23
f 55//23 50//23 51//23 54//23
f 54//24 51//24 52//24 53//24
f 79//25 78//25 77//25 80//25
f 121//26 127//26 80//26 77//26
f 128//27 122//27 78//27 79//27
f 127//3 128//3 79//3 80//3
f 82//28 83//28 87//28 86//28
f 59//29 46//29 81//29 84//29
f 58//3 59//3 84//3 83//3
f 47//30 58//30 83//30 82//30
f 87//3 88//3 92//3 91//3
f 83//31 84//31 88//31 87//31
f 84//32 81//32 85//32 88//32
f 81//33 82//33 86//33 85//33
f 98//34 97//34 95//34 94//34
f 88//17 85//17 89//17 92//17
f 85//1 86//1 90//1 89//1
f 86//35 87//35 91//35 90//35
f 96//36 93//36 94//36 95//36
f 97//3 99//3 96//3 95//3
f 142//3 141//3 103//3 102//3
f 100//1 98//1 94//1 93//1
f 160//1 157//1 98//1 100//1
f 159//37 160//37 100//37 99//37
f 158//3 159//3 99//3 97//3
f 157//38 158//38 97//38 98//38
f 103//39 104//39 101//39 102//39
f 143//40 142//40 102//40 101//40
f 141//41 144//41 104//41 103//41
f 144//42 143//42 101//42 104//42
f 40//1 17//1 105//1 116//1
f 116//1 105//1 106//1 115//1
f 115//1 106//1 107//1 114//1
f 17//43 23//43 108//43 105//43
f 105//44 108//44 109//44 106//44
f 103//45 117//45 118//45 102//45
f 23//3 29//3 111//3 108//3
f 108//3 111//3 112//3 109//3
f 109//3 112//3 113//3 110//3
f 29//9 40//9 116//9 111//9
f 111//9 116//9 115//9 112//9
f 112//9 115//9 114//9 113//9
f 106//46 109//46 110//46 103//46 104//46 107//46
f 6//47 2//47 124//47 130//47
f 102//48 118//48 24//48
f 117//49 103//49 110//49
f 126//3 129//3 128//3 127//3
f 125//3 130//3 129//3 126//3
f 12//3 6//3 130//3 125//3
f 107//50 104//50 101//50 18//50
f 130//51 124//51 123//51 129//51
f 129//52 123//52 122//52 128//52
f 9//53 12//53 125//53 119//53
f 119//54 125//54 126//54 120//54
f 120//55 126//55 127//55 121//55
f 2//1 9//1 119//1 124//1
f 124//1 119//1 120//1 123//1
f 123//1 120//1 121//1 122//1
f 12//56 9//56 131//56 132//56
f 156//1 145//1 136//1 134//1
f 150//3 151//3 133//3 135//3
f 145//57 150//57 135//57 136//57
f 135//58 133//58 134//58 136//58
f 41//59 45//59 137//59 138//59
f 60//60 42//60 139//60 140//60
f 42//61 41//61 138//61 139//61
f 151//62 156//62 134//62 133//62
f 45//63 60//63 140//63 137//63
f 100//64 93//64 143//64 144//64
f 99//65 100//65 144//65 141//65
f 93//66 96//66 142//66 143//66
f 96//3 99//3 141//3 142//3
f 139//67 138//67 154//67 153//67
f 153//68 154//68 155//68 152//68
f 152//69 155//69 156//69 151//69
f 137//70 140//70 148//70 147//70
f 147//71 148//71 149//71 146//71
f 146//72 149//72 150//72 145//72
f 140//3 139//3 153//3 148//3
f 148//3 153//3 152//3 149//3
f 149//3 152//3 151//3 150//3
f 138//1 137//1 147//1 154//1
f 154//1 147//1 146//1 155//1
f 155//1 146//1 145//1 156//1
f 90//73 91//73 158//73 157//73
f 91//3 92//3 159//3 158//3
f 92//74 89//74 160//74 159//74
f 89//1 90//1 157//1 160//1
f 165//75 164//75 163//75 162//75
f 179//76 172//76 167//76 166//76
f 171//77 169//77 168//77 170//77
f 170//77 168//77 178//77 185//77
f 185//77 178//77 177//77 184//77
f 184//77 177//77 176//77 183//77
f 183//77 176//77 175//77 182//77
f 182//77 175//77 174//77 181//77
f 181//77 174//77 173//77 180//77
f 180//77 173//77 172//77 179//77
f 205//78 220//78 166//78 167//78
f 219//1 227//1 180//1 179//1
f 228//3 222//3 173//3 174//3
f 227//1 231//1 181//1 180//1
f 232//3 228//3 174//3 175//3
f 187//3 189//3 164//3 165//3
f 225//19 216//19 169//19 171//19
f 231//1 235//1 182//1 181//1
f 236//3 232//3 175//3 176//3
f 235//1 239//1 183//1 182//1
f 188//1 186//1 162//1 163//1
f 240//3 236//3 176//3 177//3
f 239//1 210//1 184//1 183//1
f 209//3 240//3 177//3 178//3
f 4//1 2//1 186//1 188//1
f 6//3 8//3 189//3 187//3
f 2//79 6//79 190//79 191//79
f 8//18 4//18 188//18 189//18
f 199//3 198//3 197//3 194//3
f 187//80 186//80 192//80 193//80
f 186//81 2//81 191//81 192//81
f 6//82 187//82 193//82 190//82
f 195//83 194//83 197//83 196//83
f 200//84 199//84 194//84 195//84
f 198//85 201//85 196//85 197//85
f 201//1 200//1 195//1 196//1
f 192//1 191//1 200//1 201//1
f 193//86 192//86 201//86 198//86
f 191//87 190//87 199//87 200//87
f 190//3 193//3 198//3 199//3
f 67//3 66//3 241//3 208//3
f 236//88 240//88 260//88 258//88
f 73//1 74//1 211//1 238//1
f 219//89 220//89 270//89 269//89
f 66//3 65//3 237//3 241//3
f 209//88 206//88 246//88 249//88
f 72//1 73//1 238//1 234//1
f 218//77 226//77 274//77 268//77
f 65//3 64//3 233//3 237//3
f 216//18 217//18 251//18 250//18
f 71//1 72//1 234//1 230//1
f 224//18 225//18 273//18 272//18
f 44//19 43//19 217//19 224//19
f 224//19 217//19 216//19 225//19
f 64//3 63//3 229//3 233//3
f 222//88 228//88 254//88 252//88
f 70//1 71//1 230//1 226//1
f 221//90 218//90 268//90 271//90
f 63//3 62//3 223//3 229//3
f 241//77 237//77 259//77 261//77
f 69//1 70//1 226//1 218//1
f 235//88 231//88 277//88 279//88
f 13//91 221//91 284//91 282//91
f 205//92 204//92 285//92 286//92
f 74//1 75//1 212//1 211//1
f 210//88 239//88 281//88 262//88
f 68//3 67//3 208//3 207//3
f 207//77 208//77 248//77 247//77
f 61//3 14//3 204//3 203//3
f 206//88 216//88 250//88 246//88
f 75//1 76//1 214//1 212//1
f 213//88 210//88 262//88 265//88
f 43//3 68//3 207//3 217//3
f 229//77 223//77 253//77 255//77
f 13//1 69//1 218//1 221//1
f 230//77 234//77 278//77 276//77
f 62//3 61//3 203//3 223//3
f 217//77 207//77 247//77 251//77
f 76//1 44//1 224//1 214//1
f 231//88 227//88 275//88 277//88
f 248//3 261//3 260//3 249//3
f 261//3 259//3 258//3 260//3
f 259//3 257//3 256//3 258//3
f 257//3 255//3 254//3 256//3
f 255//3 253//3 252//3 254//3
f 247//3 248//3 249//3 246//3
f 243//93 244//93 245//93 242//93
f 251//3 247//3 246//3 250//3
f 253//3 243//3 242//3 252//3
f 203//94 204//94 244//94 243//94
f 223//77 203//77 243//77 253//77
f 233//77 229//77 255//77 257//77
f 205//95 202//95 242//95 245//95
f 202//88 222//88 252//88 242//88
f 204//96 205//96 245//96 244//96
f 208//77 241//77 261//77 248//77
f 228//88 232//88 256//88 254//88
f 237//77 233//77 257//77 259//77
f 240//88 209//88 249//88 260//88
f 232//88 236//88 258//88 256//88
f 280//1 263//1 262//1 281//1
f 278//1 280//1 281//1 279//1
f 276//1 278//1 279//1 277//1
f 274//1 276//1 277//1 275//1
f 268//1 274//1 275//1 269//1
f 263//1 264//1 265//1 262//1
f 264//1 266//1 267//1 265//1
f 271//97 268//97 269//97 270//97
f 266//1 272//1 273//1 267//1
f 234//77 238//77 280//77 278//77
f 227//88 219//88 269//88 275//88
f 239//88 235//88 279//88 281//88
f 212//77 214//77 266//77 264//77
f 214//77 224//77 272//77 266//77
f 220//98 221//98 271//98 270//98
f 226//77 230//77 276//77 274//77
f 215//88 213//88 265//88 267//88
f 211//77 212//77 264//77 263//77
f 225//88 215//88 267//88 273//88
f 238//77 211//77 263//77 280//77
f 282//1 284//1 290//1 288//1
f 286//3 285//3 291//3 292//3
f 220//99 205//99 286//99 287//99
f 221//100 220//100 287//100 284//100
f 14//101 13//101 282//101 283//101
f 204//102 14//102 283//102 285//102
f 291//103 289//103 295//103 297//103
f 290//104 293//104 299//104 296//104
f 287//105 286//105 292//105 293//105
f 284//1 287//1 293//1 290//1
f 285//3 283//3 289//3 291//3
f 283//106 282//106 288//106 289//106
f 294//3 296//3 302//3 300//3
f 298//1 297//1 303//1 304//1
f 289//107 288//107 294//107 295//107
f 292//108 291//108 297//108 298//108
f 288//109 290//109 296//109 294//109
f 293//110 292//110 298//110 299//110
f 301//111 300//111 302//111 303//111
f 303//112 302//112 305//112 304//112
f 299//106 298//106 304//106 305//106
f 296//3 299//3 305//3 302//3
f 297//1 295//1 301//1 303//1
f 295//105 294//105 300//105 301//105
