# Blender v2.76 (sub 0) OBJ File: ''
# www.blender.org
mtllib untitled.mtl
o Cube.001
v 1.000000 -1.000000 1.000000
v 1.000000 1.000000 1.000000
v -1.000000 1.000000 1.000000
v -1.000000 -1.000000 1.000000
v 1.000000 -1.000000 -1.000000
v -1.000000 -1.000000 -1.000000
v -1.000000 1.000000 -1.000000
v 0.999999 1.000001 -1.000000
vt 0.666667 0.333333
vt 0.333333 0.333333
vt 0.333333 0.000000
vt 0.666667 0.000000
vt 1.000000 0.000000
vt 1.000000 0.333333
vt 0.000000 1.000000
vt 0.000000 0.666667
vt 0.333333 0.666667
vt 0.333333 1.000000
vt 1.000000 0.666667
vt 0.666667 0.666667
vt 0.000000 0.000000
vt 0.000000 0.333333
vn 1.000000 0.000000 -0.000000
vn 0.000000 -0.000000 1.000000
vn -0.000000 0.000000 -1.000000
vn -0.000000 1.000000 0.000000
vn -1.000000 0.000000 0.000000
vn 0.000000 -1.000000 -0.000000
usemtl Material.001
s 1
f 1/1/1 5/2/1 8/3/1 2/4/1
usemtl Material.001_player.png
f 1/4/2 2/5/2 3/6/2 4/1/2
f 5/7/3 6/8/3 7/9/3 8/10/3
f 2/1/4 8/6/4 7/11/4 3/12/4
f 3/13/5 7/3/5 6/2/5 4/14/5
f 5/8/6 1/14/6 4/2/6 6/9/6
